<svg width="70" height="70" viewBox="0 0 70 70" fill="none" xmlns="http://www.w3.org/2000/svg">
<circle cx="35" cy="35" r="35" fill="#073984"/>
<path d="M26.376 48V24.132C29.796 23.664 33.072 23.34 36.06 23.34C42.792 23.34 46.716 26.364 46.716 32.124C46.716 35.508 45.096 38.136 42.324 39.612L47.508 48H40.704L36.564 40.98C36.456 40.98 36.312 40.98 36.204 40.98C35.052 40.98 33.864 40.908 32.676 40.836V48H26.376ZM36.096 28.272C35.052 28.272 33.864 28.344 32.676 28.488V35.832C33.9 35.976 35.088 36.048 36.276 36.048C38.688 36.048 40.524 34.68 40.524 32.232C40.524 29.28 38.796 28.272 36.096 28.272Z" fill="white"/>
</svg>
